<mxfile host="Electron" agent="Mozilla/5.0 (Macintosh; Intel Mac OS X 10_15_7) AppleWebKit/537.36 (KHTML, like Gecko) draw.io/26.0.16 Chrome/132.0.6834.196 Electron/34.2.0 Safari/537.36" version="26.0.16">
  <diagram name="Page-1" id="9ZoHQcSWzZiH8C7h-zNu">
    <mxGraphModel dx="1078" dy="903" grid="1" gridSize="10" guides="1" tooltips="1" connect="1" arrows="1" fold="1" page="1" pageScale="1" pageWidth="1169" pageHeight="827" math="1" shadow="0">
      <root>
        <mxCell id="0" />
        <mxCell id="1" parent="0" />
        <mxCell id="-wROMTUGBv7PqUXVVMhE-1" value="" style="shape=cube;whiteSpace=wrap;html=1;boundedLbl=1;backgroundOutline=1;darkOpacity=0.05;darkOpacity2=0.1;size=80;fillColor=#dae8fc;strokeColor=#6c8ebf;" vertex="1" parent="1">
          <mxGeometry x="161" y="160" width="90" height="407" as="geometry" />
        </mxCell>
        <mxCell id="-wROMTUGBv7PqUXVVMhE-2" value="&lt;font style=&quot;font-size: 14px;&quot;&gt;1&lt;/font&gt;" style="text;html=1;align=center;verticalAlign=middle;resizable=0;points=[];autosize=1;strokeColor=none;fillColor=none;" vertex="1" parent="1">
          <mxGeometry x="230.5" y="568" width="30" height="30" as="geometry" />
        </mxCell>
        <mxCell id="-wROMTUGBv7PqUXVVMhE-3" value="&lt;font style=&quot;font-size: 14px;&quot;&gt;28&lt;/font&gt;" style="text;html=1;align=center;verticalAlign=middle;resizable=0;points=[];autosize=1;strokeColor=none;fillColor=none;" vertex="1" parent="1">
          <mxGeometry x="173.5" y="520" width="40" height="30" as="geometry" />
        </mxCell>
        <mxCell id="-wROMTUGBv7PqUXVVMhE-4" value="&lt;font style=&quot;font-size: 14px;&quot;&gt;28&lt;/font&gt;" style="text;html=1;align=center;verticalAlign=middle;resizable=0;points=[];autosize=1;strokeColor=none;fillColor=none;" vertex="1" parent="1">
          <mxGeometry x="121" y="318.5" width="40" height="30" as="geometry" />
        </mxCell>
        <mxCell id="-wROMTUGBv7PqUXVVMhE-5" value="" style="shape=cube;whiteSpace=wrap;html=1;boundedLbl=1;backgroundOutline=1;darkOpacity=0.05;darkOpacity2=0.1;size=15;fillColor=#f8cecc;strokeColor=#b85450;" vertex="1" parent="1">
          <mxGeometry x="196" y="338.5" width="20" height="50" as="geometry" />
        </mxCell>
        <mxCell id="-wROMTUGBv7PqUXVVMhE-6" value="&lt;font style=&quot;font-size: 14px;&quot;&gt;3&lt;/font&gt;" style="text;html=1;align=center;verticalAlign=middle;resizable=0;points=[];autosize=1;strokeColor=none;fillColor=none;" vertex="1" parent="1">
          <mxGeometry x="186" y="378.5" width="30" height="30" as="geometry" />
        </mxCell>
        <mxCell id="-wROMTUGBv7PqUXVVMhE-7" value="&lt;font style=&quot;font-size: 14px;&quot;&gt;3&lt;/font&gt;" style="text;html=1;align=center;verticalAlign=middle;resizable=0;points=[];autosize=1;strokeColor=none;fillColor=none;" vertex="1" parent="1">
          <mxGeometry x="173.5" y="340" width="30" height="30" as="geometry" />
        </mxCell>
        <mxCell id="-wROMTUGBv7PqUXVVMhE-15" value="" style="shape=cube;whiteSpace=wrap;html=1;boundedLbl=1;backgroundOutline=1;darkOpacity=0.05;darkOpacity2=0.1;size=40;fillColor=#dae8fc;strokeColor=#6c8ebf;" vertex="1" parent="1">
          <mxGeometry x="308.5" y="253.5" width="160" height="220" as="geometry" />
        </mxCell>
        <mxCell id="-wROMTUGBv7PqUXVVMhE-34" value="&lt;font style=&quot;font-size: 14px;&quot;&gt;50&lt;/font&gt;" style="text;html=1;align=center;verticalAlign=middle;resizable=0;points=[];autosize=1;strokeColor=none;fillColor=none;" vertex="1" parent="1">
          <mxGeometry x="388.5" y="473.5" width="40" height="30" as="geometry" />
        </mxCell>
        <mxCell id="-wROMTUGBv7PqUXVVMhE-35" value="&lt;font style=&quot;font-size: 14px;&quot;&gt;14&lt;/font&gt;" style="text;html=1;align=center;verticalAlign=middle;resizable=0;points=[];autosize=1;strokeColor=none;fillColor=none;" vertex="1" parent="1">
          <mxGeometry x="298.5" y="450" width="40" height="30" as="geometry" />
        </mxCell>
        <mxCell id="-wROMTUGBv7PqUXVVMhE-37" value="&lt;font style=&quot;font-size: 14px;&quot;&gt;14&lt;/font&gt;" style="text;html=1;align=center;verticalAlign=middle;resizable=0;points=[];autosize=1;strokeColor=none;fillColor=none;" vertex="1" parent="1">
          <mxGeometry x="268.5" y="340" width="40" height="30" as="geometry" />
        </mxCell>
        <mxCell id="-wROMTUGBv7PqUXVVMhE-38" value="" style="shape=cube;whiteSpace=wrap;html=1;boundedLbl=1;backgroundOutline=1;darkOpacity=0.05;darkOpacity2=0.1;size=10;fillColor=#f8cecc;strokeColor=#b85450;" vertex="1" parent="1">
          <mxGeometry x="333.5" y="345" width="110" height="50.5" as="geometry" />
        </mxCell>
        <mxCell id="-wROMTUGBv7PqUXVVMhE-39" value="" style="endArrow=none;html=1;rounded=0;strokeColor=light-dark(#6c8ebf, #ededed);exitX=0;exitY=0;exitDx=40;exitDy=180;exitPerimeter=0;entryX=0.25;entryY=0.182;entryDx=0;entryDy=0;entryPerimeter=0;" edge="1" parent="1" source="-wROMTUGBv7PqUXVVMhE-15" target="-wROMTUGBv7PqUXVVMhE-15">
          <mxGeometry width="50" height="50" relative="1" as="geometry">
            <mxPoint x="358.5" y="418" as="sourcePoint" />
            <mxPoint x="358.5" y="340" as="targetPoint" />
          </mxGeometry>
        </mxCell>
        <mxCell id="-wROMTUGBv7PqUXVVMhE-40" value="" style="shape=cube;whiteSpace=wrap;html=1;boundedLbl=1;backgroundOutline=1;darkOpacity=0.05;darkOpacity2=0.1;size=30;fillColor=#dae8fc;strokeColor=#6c8ebf;" vertex="1" parent="1">
          <mxGeometry x="518.5" y="290" width="250" height="133.5" as="geometry" />
        </mxCell>
        <mxCell id="-wROMTUGBv7PqUXVVMhE-41" value="&lt;font style=&quot;font-size: 14px;&quot;&gt;100&lt;/font&gt;" style="text;html=1;align=center;verticalAlign=middle;resizable=0;points=[];autosize=1;strokeColor=none;fillColor=none;" vertex="1" parent="1">
          <mxGeometry x="628.5" y="423.5" width="50" height="30" as="geometry" />
        </mxCell>
        <mxCell id="-wROMTUGBv7PqUXVVMhE-42" value="&lt;font style=&quot;font-size: 14px;&quot;&gt;7&lt;/font&gt;" style="text;html=1;align=center;verticalAlign=middle;resizable=0;points=[];autosize=1;strokeColor=none;fillColor=none;" vertex="1" parent="1">
          <mxGeometry x="513.5" y="406.5" width="30" height="30" as="geometry" />
        </mxCell>
        <mxCell id="-wROMTUGBv7PqUXVVMhE-43" value="&lt;font style=&quot;font-size: 14px;&quot;&gt;7&lt;/font&gt;" style="text;html=1;align=center;verticalAlign=middle;resizable=0;points=[];autosize=1;strokeColor=none;fillColor=none;" vertex="1" parent="1">
          <mxGeometry x="488.5" y="331.5" width="30" height="30" as="geometry" />
        </mxCell>
        <mxCell id="-wROMTUGBv7PqUXVVMhE-47" value="" style="shape=cube;whiteSpace=wrap;html=1;boundedLbl=1;backgroundOutline=1;darkOpacity=0.05;darkOpacity2=0.1;size=10;fillColor=#f8cecc;strokeColor=#b85450;" vertex="1" parent="1">
          <mxGeometry x="528.5" y="339.5" width="220" height="50.5" as="geometry" />
        </mxCell>
        <mxCell id="-wROMTUGBv7PqUXVVMhE-45" value="" style="endArrow=none;html=1;rounded=0;strokeColor=light-dark(#6c8ebf, #ededed);exitX=0;exitY=0;exitDx=30;exitDy=133.5;exitPerimeter=0;" edge="1" parent="1" source="-wROMTUGBv7PqUXVVMhE-40">
          <mxGeometry width="50" height="50" relative="1" as="geometry">
            <mxPoint x="568.5" y="404.5" as="sourcePoint" />
            <mxPoint x="548.5" y="320.5" as="targetPoint" />
          </mxGeometry>
        </mxCell>
        <mxCell id="-wROMTUGBv7PqUXVVMhE-48" value="" style="shape=cube;whiteSpace=wrap;html=1;boundedLbl=1;backgroundOutline=1;darkOpacity=0.05;darkOpacity2=0.1;fillColor=#d5e8d4;strokeColor=#82b366;size=220;" vertex="1" parent="1">
          <mxGeometry x="728.5" y="248.5" width="230" height="230" as="geometry" />
        </mxCell>
        <mxCell id="-wROMTUGBv7PqUXVVMhE-49" value="&lt;font style=&quot;font-size: 14px;&quot;&gt;4900&lt;/font&gt;" style="text;html=1;align=center;verticalAlign=middle;resizable=0;points=[];autosize=1;strokeColor=none;fillColor=none;" vertex="1" parent="1">
          <mxGeometry x="788.5" y="365.5" width="50" height="30" as="geometry" />
        </mxCell>
        <mxCell id="-wROMTUGBv7PqUXVVMhE-50" value="" style="shape=cube;whiteSpace=wrap;html=1;boundedLbl=1;backgroundOutline=1;darkOpacity=0.05;darkOpacity2=0.1;fillColor=#fff2cc;strokeColor=#d6b656;size=50;" vertex="1" parent="1">
          <mxGeometry x="988.5" y="331.75" width="60" height="60" as="geometry" />
        </mxCell>
        <mxCell id="-wROMTUGBv7PqUXVVMhE-51" value="" style="endArrow=none;html=1;rounded=0;entryX=0;entryY=0;entryDx=50;entryDy=60;entryPerimeter=0;" edge="1" parent="1" target="-wROMTUGBv7PqUXVVMhE-50">
          <mxGeometry width="50" height="50" relative="1" as="geometry">
            <mxPoint x="958.5" y="468.5" as="sourcePoint" />
            <mxPoint x="1008.5" y="418.5" as="targetPoint" />
          </mxGeometry>
        </mxCell>
        <mxCell id="-wROMTUGBv7PqUXVVMhE-52" value="" style="endArrow=none;html=1;rounded=0;entryX=0;entryY=0;entryDx=0;entryDy=0;entryPerimeter=0;exitX=0;exitY=0;exitDx=10;exitDy=0;exitPerimeter=0;" edge="1" parent="1" source="-wROMTUGBv7PqUXVVMhE-48" target="-wROMTUGBv7PqUXVVMhE-50">
          <mxGeometry width="50" height="50" relative="1" as="geometry">
            <mxPoint x="773.5" y="241.5" as="sourcePoint" />
            <mxPoint x="853.5" y="165" as="targetPoint" />
          </mxGeometry>
        </mxCell>
        <mxCell id="-wROMTUGBv7PqUXVVMhE-53" value="&lt;font style=&quot;font-size: 14px;&quot;&gt;7&lt;/font&gt;" style="text;html=1;align=center;verticalAlign=middle;resizable=0;points=[];autosize=1;strokeColor=none;fillColor=none;" vertex="1" parent="1">
          <mxGeometry x="1018.5" y="336.5" width="30" height="30" as="geometry" />
        </mxCell>
      </root>
    </mxGraphModel>
  </diagram>
</mxfile>
